name C:/MyDriveSym/Projects/mobilecap/Data\Session20210830_0002\mocap\ForceDataProcessed\walkingTS2_forces.mot
datacolumns 19
datarows 9
range 0.00000000 0.00400000
endheader 
time	R_ground_force_vx	R_ground_force_vy	R_ground_force_vz	R_ground_force_px	R_ground_force_py	R_ground_force_pz	R_ground_torque_x	R_ground_torque_y	R_ground_torque_z	L_ground_force_vx	L_ground_force_vy	L_ground_force_vz	L_ground_force_px	L_ground_force_py	L_ground_force_pz	L_ground_torque_x	L_ground_torque_y	L_ground_torque_z	
          0.00000000	         -0.76247500	        179.97042000	         25.77073200	          0.08787600	          0.00600000	         -0.17978000	          0.00000000	          1.29145700	          0.00000000	          0.00000000	          0.00000000	          0.00000000	          0.67780900	          0.00000000	         -0.21749200	          0.00000000	          0.00000000	          0.00000000	
          0.00050000	         -1.08808400	        181.31719900	         25.83353400	          0.08787600	          0.00600000	         -0.17978000	          0.00000000	          1.27805700	          0.00000000	          0.00000000	          0.00000000	          0.00000000	          0.67780900	          0.00000000	         -0.21749200	          0.00000000	          0.00000000	          0.00000000	
          0.00100000	         -1.41663500	        182.67591800	         25.89575400	          0.08787600	          0.00600000	         -0.17978000	          0.00000000	          1.26461100	          0.00000000	          0.00000000	          0.00000000	          0.00000000	          0.67780900	          0.00000000	         -0.21749200	          0.00000000	          0.00000000	          0.00000000	
          0.00150000	         -1.74812700	        184.04657600	         25.95737200	          0.08787600	          0.00600000	         -0.17978000	          0.00000000	          1.25112000	          0.00000000	          0.00000000	          0.00000000	          0.00000000	          0.67780900	          0.00000000	         -0.21749200	          0.00000000	          0.00000000	          0.00000000	
          0.00200000	         -2.08256000	        185.42917000	         26.01836600	          0.08830300	          0.00600000	         -0.17975400	          0.00000000	          1.23758700	          0.00000000	          0.00000000	          0.00000000	          0.00000000	          0.67780900	          0.00000000	         -0.21749200	          0.00000000	          0.00000000	          0.00000000	
          0.00250000	         -2.41993400	        186.82369500	         26.07871600	          0.08873000	          0.00600000	         -0.17972800	          0.00000000	          1.22401200	          0.00000000	          0.00000000	          0.00000000	          0.00000000	          0.67780900	          0.00000000	         -0.21749200	          0.00000000	          0.00000000	          0.00000000	
          0.00300000	         -2.76024600	        188.23014700	         26.13840100	          0.08915500	          0.00600000	         -0.17970100	          0.00000000	          1.21039600	          0.00000000	          0.00000000	          0.00000000	          0.00000000	          0.67780900	          0.00000000	         -0.21749200	          0.00000000	          0.00000000	          0.00000000	
          0.00350000	         -3.10349300	        189.64851800	         26.19739800	          0.08958000	          0.00600000	         -0.17967300	          0.00000000	          1.19674100	          0.00000000	          0.00000000	          0.00000000	          0.00000000	          0.67780900	          0.00000000	         -0.21749200	          0.00000000	          0.00000000	          0.00000000	
          0.00400000	         -3.44967400	        191.07879900	         26.25568600	          0.09000400	          0.00600000	         -0.17964400	          0.00000000	          1.18304700	          0.00000000	          0.00000000	          0.00000000	          0.00000000	          0.67780900	          0.00000000	         -0.21749200	          0.00000000	          0.00000000	          0.00000000	
